<?xml version="1.0" standalone="no"?>
<!DOCTYPE svg PUBLIC "-//W3C//DTD SVG 20010904//EN"
 "http://www.w3.org/TR/2001/REC-SVG-20010904/DTD/svg10.dtd">
<svg version="1.0" xmlns="http://www.w3.org/2000/svg"
 width="375.000000pt" height="375.000000pt" viewBox="0 0 375.000000 375.000000"
 preserveAspectRatio="xMidYMid meet">
<metadata>
Created by potrace 1.14, written by Peter Selinger 2001-2017
</metadata>
<g transform="translate(0.000000,375.000000) scale(0.100000,-0.100000)"
fill="#000000" stroke="none">
<path d="M1700 3740 c-8 -5 -32 -10 -52 -10 -62 0 -266 -46 -378 -85 -116 -40
-291 -121 -358 -166 -24 -16 -46 -29 -49 -29 -20 0 -215 -160 -309 -254 -99
-99 -254 -289 -254 -311 0 -5 -6 -16 -14 -24 -20 -22 -110 -195 -136 -261 -69
-172 -106 -309 -132 -485 -16 -108 -21 -342 -9 -417 6 -38 16 -101 22 -140 13
-82 41 -194 70 -283 56 -167 173 -388 286 -537 88 -115 290 -308 413 -393 97
-67 297 -177 375 -206 11 -4 45 -16 75 -27 97 -36 188 -60 365 -92 115 -21
332 -24 466 -6 120 16 146 21 254 46 51 13 154 45 190 60 11 4 40 16 65 25 68
25 240 118 325 175 300 202 561 518 685 830 12 30 26 64 30 75 15 36 48 139
59 188 27 114 31 139 47 256 18 134 15 351 -6 466 -38 209 -54 267 -119 440
-45 119 -166 327 -263 455 -60 78 -255 271 -338 334 -116 88 -285 183 -455
256 -79 34 -256 82 -365 99 -41 6 -100 16 -131 21 -71 13 -339 13 -359 0z
m440 -46 c165 -30 229 -43 255 -53 11 -5 52 -19 90 -31 148 -47 335 -148 487
-262 307 -229 529 -537 647 -894 21 -66 44 -146 51 -179 6 -33 14 -69 16 -80
3 -11 11 -85 19 -165 21 -220 -5 -468 -73 -700 -22 -74 -89 -240 -103 -254 -5
-6 -9 -15 -9 -22 0 -15 -66 -124 -141 -234 -187 -271 -475 -506 -779 -634
-195 -83 -350 -120 -580 -141 -747 -66 -1468 346 -1799 1030 -53 111 -75 163
-90 215 -7 25 -17 54 -21 65 -8 20 -13 38 -30 125 -34 173 -40 227 -40 386 0
250 42 490 115 659 8 17 22 53 33 81 23 56 76 157 134 253 123 203 386 463
587 581 109 63 182 101 235 122 28 11 65 25 81 33 100 43 191 67 385 100 111
18 426 18 530 -1z"/>
<path d="M2181 3400 c-96 -38 -103 -45 -67 -73 l29 -23 -20 -91 c-23 -105 -16
-141 36 -167 58 -30 181 -10 181 30 0 15 -6 18 -52 28 -25 6 -28 11 -28 48 0
22 5 58 11 79 11 36 14 38 58 41 41 3 46 6 46 27 0 19 -8 27 -35 36 -32 11
-35 15 -35 51 0 34 -3 39 -25 41 -14 1 -58 -11 -99 -27z"/>
<path d="M1241 3376 c-23 -25 -24 -28 -11 -80 19 -82 9 -320 -15 -346 -10 -11
-26 -20 -35 -20 -9 0 -25 -9 -35 -20 -10 -11 -26 -20 -36 -20 -17 0 -109 98
-109 117 0 5 11 20 25 33 29 27 31 42 10 60 -11 9 -20 8 -44 -9 -36 -26 -43
-26 -66 -1 -37 41 -52 25 -91 -98 -19 -58 -21 -78 -12 -89 8 -10 14 -11 22 -3
21 21 44 8 99 -59 74 -90 109 -104 169 -68 28 16 51 41 68 73 14 27 30 49 35
50 27 1 82 18 109 34 40 22 45 47 12 60 -51 19 -24 57 61 84 64 21 77 15 68
-30 -8 -45 8 -51 82 -29 90 27 143 61 143 90 0 20 -5 25 -27 25 -21 1 -54 26
-137 105 -130 125 -172 155 -223 162 -32 4 -42 1 -62 -21z m119 -168 c49 -36
31 -78 -34 -78 -24 0 -26 3 -26 43 0 64 12 71 60 35z"/>
<path d="M1920 3375 c-9 -11 -10 -22 -3 -38 12 -28 3 -67 -20 -81 -32 -20 -73
54 -46 81 6 6 8 16 5 22 -17 27 -165 24 -202 -4 -18 -14 -17 -16 17 -47 20
-18 54 -64 75 -103 63 -117 85 -146 108 -143 28 4 58 52 98 155 21 55 45 98
66 119 19 18 31 38 27 43 -10 17 -110 14 -125 -4z"/>
<path d="M2445 3240 c-3 -5 -3 -21 1 -35 9 -36 -40 -131 -78 -147 -41 -18 -37
-50 10 -81 48 -31 126 -59 147 -51 17 7 20 39 5 49 -16 10 -10 47 13 89 27 49
43 55 58 22 29 -64 140 -46 139 23 -1 47 -25 66 -80 64 -47 -2 -50 -1 -50 22
0 19 -9 28 -36 40 -41 17 -120 20 -129 5z"/>
<path d="M2807 3074 c-4 -4 -7 -27 -7 -51 0 -48 -63 -249 -85 -272 -7 -7 -21
-11 -30 -7 -12 4 -14 14 -9 41 7 41 -8 65 -41 65 -54 0 -72 -69 -30 -118 62
-74 147 -67 310 25 61 35 119 55 146 51 60 -9 60 39 -1 82 -33 24 -57 21 -67
-7 -11 -32 -35 -53 -61 -53 -23 0 -24 2 -17 37 6 36 11 42 44 62 24 14 4 57
-47 99 -48 41 -91 59 -105 46z"/>
<path d="M681 2783 c-37 -29 -81 -117 -81 -161 0 -32 16 -52 41 -52 23 0 30
22 23 73 -8 57 11 75 55 52 17 -8 31 -20 31 -26 0 -5 -11 -32 -25 -59 -28 -56
-32 -97 -10 -126 19 -25 19 -53 0 -60 -19 -8 -152 22 -218 48 -29 12 -66 35
-84 51 -36 34 -46 31 -73 -23 -35 -69 -29 -91 51 -169 45 -44 69 -76 66 -85
-3 -8 -31 -20 -64 -26 -141 -30 -146 -32 -165 -86 -32 -91 -17 -133 37 -104
50 27 283 -49 318 -104 24 -36 44 -24 63 39 23 71 15 89 -35 80 -38 -6 -101 6
-130 24 -26 17 6 41 54 41 98 0 173 33 131 57 -38 23 -126 110 -126 125 0 22
8 22 71 2 29 -10 57 -27 66 -40 8 -13 19 -24 24 -24 24 0 80 138 76 185 -1 13
8 24 28 33 48 23 65 43 77 90 9 35 17 46 39 54 38 13 66 69 53 106 -8 22 -17
28 -51 33 -27 3 -58 18 -89 42 -59 46 -103 49 -153 10z m153 -172 c18 -20 12
-51 -9 -51 -31 0 -45 13 -45 41 0 34 27 40 54 10z"/>
<path d="M3045 2716 c-112 -50 -128 -199 -30 -284 42 -37 79 -49 100 -32 21
18 19 28 -16 68 -33 38 -35 72 -4 118 20 30 72 41 94 20 15 -15 15 -19 -2 -47
-22 -39 -22 -62 2 -83 29 -26 82 -9 93 29 15 53 0 110 -40 155 -55 63 -133 84
-197 56z"/>
<path d="M2025 2640 c-4 -6 27 -10 87 -9 62 1 85 4 68 9 -36 12 -148 12 -155
0z"/>
<path d="M2426 2599 c-15 -31 -15 -32 2 -16 10 10 26 17 36 17 21 0 16 24 -6
28 -10 2 -22 -10 -32 -29z"/>
<path d="M2490 2580 c0 -5 5 -10 11 -10 5 0 7 5 4 10 -3 6 -8 10 -11 10 -2 0
-4 -4 -4 -10z"/>
<path d="M1913 2573 c-19 -4 -21 -9 -16 -33 4 -25 1 -31 -21 -41 -29 -14 -33
-24 -11 -33 9 -3 15 -19 15 -41 0 -60 17 -30 23 41 4 37 13 77 22 90 8 13 14
23 13 23 -2 -1 -13 -4 -25 -6z"/>
<path d="M1660 2560 c-42 -5 -25 -7 73 -8 79 -1 127 2 127 8 0 11 -110 11
-200 0z"/>
<path d="M2502 2540 c-10 -17 -10 -20 2 -20 19 0 31 19 19 31 -5 5 -14 0 -21
-11z"/>
<path d="M1205 2540 c-4 -6 24 -10 78 -10 46 0 99 -5 117 -11 l33 -12 -24 -18
c-30 -23 -5 -26 35 -5 26 13 26 14 5 19 -14 4 -20 11 -16 21 3 8 -1 17 -9 20
-26 10 -212 7 -219 -4z"/>
<path d="M2575 2520 c3 -5 16 -10 28 -10 18 0 19 2 7 10 -20 13 -43 13 -35 0z"/>
<path d="M2455 2500 c-3 -5 -2 -10 4 -10 5 0 13 5 16 10 3 6 2 10 -4 10 -5 0
-13 -4 -16 -10z"/>
<path d="M2665 2500 c3 -5 16 -10 28 -9 21 0 21 1 2 9 -28 12 -37 12 -30 0z"/>
<path d="M1068 2476 c-24 -18 -22 -26 5 -26 29 0 37 7 30 26 -6 17 -13 17 -35
0z"/>
<path d="M1510 2480 c17 -11 117 -11 205 0 48 6 33 7 -80 8 -94 1 -135 -2
-125 -8z"/>
<path d="M2403 2473 c-21 -14 -23 -23 -21 -92 l1 -76 6 65 6 65 43 -3 c28 -2
41 1 37 8 -3 5 -15 10 -26 10 -16 0 -19 5 -14 20 8 24 -2 25 -32 3z"/>
<path d="M1295 2460 c3 -5 19 -10 36 -10 16 0 29 5 29 10 0 6 -16 10 -36 10
-21 0 -33 -4 -29 -10z"/>
<path d="M2775 2460 c3 -5 11 -10 16 -10 6 0 7 5 4 10 -3 6 -11 10 -16 10 -6
0 -7 -4 -4 -10z"/>
<path d="M3418 2433 c-13 -28 -27 -34 -158 -69 -53 -15 -104 -19 -144 -12 -34
6 -41 -24 -21 -88 27 -90 64 -119 93 -74 13 21 37 26 47 10 3 -6 -13 -37 -36
-70 -42 -59 -42 -61 -30 -103 36 -119 66 -140 95 -64 9 24 38 68 65 98 l48 54
38 -38 c50 -50 70 -44 61 18 -3 25 -13 59 -22 76 -14 28 -19 30 -49 25 -27 -5
-36 -3 -44 13 -6 11 -11 24 -11 29 0 8 95 41 163 56 15 4 27 13 27 22 0 35
-72 144 -96 144 -7 0 -19 -12 -26 -27z"/>
<path d="M1845 2428 c-4 -10 -4 -26 0 -35 8 -17 8 -17 12 0 3 9 3 25 0 35 -4
16 -4 16 -12 0z"/>
<path d="M2820 2421 c0 -17 27 -37 37 -27 7 7 -17 46 -27 46 -6 0 -10 -9 -10
-19z"/>
<path d="M1005 2410 c-10 -11 -14 -20 -9 -20 5 0 15 9 22 20 7 11 11 20 9 20
-2 0 -12 -9 -22 -20z"/>
<path d="M2352 2377 c-2 -50 -5 -59 -24 -66 l-23 -9 27 -10 c14 -6 29 -16 33
-21 9 -16 35 -13 35 4 0 8 -9 19 -20 25 -15 8 -20 23 -23 73 l-3 62 -2 -58z"/>
<path d="M2515 2420 c3 -5 15 -10 26 -10 10 0 19 5 19 10 0 6 -12 10 -26 10
-14 0 -23 -4 -19 -10z"/>
<path d="M2615 2400 c3 -5 15 -10 26 -10 11 0 17 5 14 10 -3 6 -15 10 -26 10
-11 0 -17 -4 -14 -10z"/>
<path d="M1120 2376 c0 -8 5 -18 10 -21 6 -3 10 3 10 14 0 12 -4 21 -10 21 -5
0 -10 -6 -10 -14z"/>
<path d="M1242 2370 c0 -14 2 -19 5 -12 2 6 2 18 0 25 -3 6 -5 1 -5 -13z"/>
<path d="M2860 2366 c0 -8 5 -18 10 -21 6 -3 10 1 10 9 0 8 -4 18 -10 21 -5 3
-10 -1 -10 -9z"/>
<path d="M1300 2359 c0 -5 5 -7 10 -4 6 3 10 8 10 11 0 2 -4 4 -10 4 -5 0 -10
-5 -10 -11z"/>
<path d="M2125 2360 c3 -5 17 -10 31 -10 14 0 22 4 19 10 -3 6 -17 10 -31 10
-14 0 -22 -4 -19 -10z"/>
<path d="M1865 2340 c-4 -6 -13 -9 -20 -6 -7 2 -17 -6 -24 -20 -6 -13 -7 -24
-3 -24 17 2 75 36 74 45 -1 14 -19 18 -27 5z"/>
<path d="M1145 2320 c3 -5 11 -10 16 -10 6 0 7 5 4 10 -3 6 -11 10 -16 10 -6
0 -7 -4 -4 -10z"/>
<path d="M2280 2320 c0 -5 5 -10 10 -10 6 0 10 5 10 10 0 6 -4 10 -10 10 -5 0
-10 -4 -10 -10z"/>
<path d="M947 2313 c-4 -3 -7 -29 -6 -57 0 -41 2 -46 9 -28 6 13 18 22 32 22
13 1 46 7 73 14 l50 14 -36 7 c-22 4 -45 2 -57 -4 -26 -14 -52 -14 -52 -1 0 6
7 10 16 10 14 0 14 3 4 15 -14 16 -23 19 -33 8z"/>
<path d="M1425 2280 c-7 -12 32 -12 60 0 16 7 13 9 -17 9 -20 1 -40 -3 -43 -9z"/>
<path d="M1595 2280 c3 -5 26 -10 51 -10 28 0 43 4 39 10 -3 6 -26 10 -51 10
-28 0 -43 -4 -39 -10z"/>
<path d="M2894 2261 c3 -18 6 -88 6 -154 0 -66 2 -118 4 -116 3 3 6 66 8 141
2 107 0 140 -11 150 -11 11 -13 8 -7 -21z"/>
<path d="M1365 2260 c-3 -5 -2 -10 4 -10 5 0 13 5 16 10 3 6 2 10 -4 10 -5 0
-13 -4 -16 -10z"/>
<path d="M1707 2263 c-9 -9 -9 -33 1 -33 4 0 18 9 32 20 l25 20 -26 0 c-14 0
-29 -3 -32 -7z"/>
<path d="M1115 2250 c-39 -6 -39 -6 -12 -14 15 -5 36 -6 48 -3 13 3 24 -1 31
-13 12 -18 12 -18 26 1 26 37 0 45 -93 29z"/>
<path d="M1265 2240 c-4 -6 8 -10 29 -10 19 0 38 5 41 10 4 6 -8 10 -29 10
-19 0 -38 -4 -41 -10z"/>
<path d="M1660 2215 c-14 -8 -20 -14 -14 -15 5 0 19 7 30 15 24 18 16 19 -16
0z"/>
<path d="M2785 2224 c-14 -6 -8 -734 6 -734 6 0 9 126 9 370 -1 204 -2 370 -3
369 -1 0 -6 -2 -12 -5z"/>
<path d="M1600 2180 c0 -5 -6 -10 -12 -10 -7 0 -24 -9 -38 -20 -21 -16 -22
-20 -7 -20 10 0 28 5 40 12 12 6 43 10 69 9 28 -1 48 2 48 9 0 5 -18 10 -40
10 -22 0 -40 5 -40 10 0 6 -4 10 -10 10 -5 0 -10 -4 -10 -10z"/>
<path d="M2486 2181 c-7 -11 18 -33 27 -24 4 3 7 12 7 20 0 15 -26 18 -34 4z"/>
<path d="M1186 2171 c-9 -15 -5 -671 5 -677 5 -3 9 136 9 340 0 190 -2 346 -4
346 -3 0 -7 -4 -10 -9z"/>
<path d="M1785 2160 c3 -5 20 -10 36 -10 18 0 28 4 24 10 -3 6 -20 10 -36 10
-18 0 -28 -4 -24 -10z"/>
<path d="M1890 2140 c0 -5 7 -10 15 -10 8 0 15 5 15 10 0 6 -7 10 -15 10 -8 0
-15 -4 -15 -10z"/>
<path d="M1448 2093 c-10 -2 -18 -9 -18 -14 0 -14 16 -11 30 6 7 8 11 14 9 14
-2 -1 -12 -3 -21 -6z"/>
<path d="M2015 2080 c3 -5 11 -10 16 -10 6 0 7 5 4 10 -3 6 -11 10 -16 10 -6
0 -7 -4 -4 -10z"/>
<path d="M2581 1983 c1 -21 5 -51 9 -68 6 -24 8 -18 9 32 0 34 -3 65 -9 68 -6
4 -10 -9 -9 -32z"/>
<path d="M1605 2000 c-8 -13 15 -13 35 0 12 8 11 10 -7 10 -12 0 -25 -4 -28
-10z"/>
<path d="M1835 2000 c3 -5 13 -10 21 -10 8 0 12 5 9 10 -3 6 -13 10 -21 10 -8
0 -12 -4 -9 -10z"/>
<path d="M1560 1980 c0 -5 5 -10 10 -10 6 0 10 5 10 10 0 6 -4 10 -10 10 -5 0
-10 -4 -10 -10z"/>
<path d="M1900 1980 c0 -5 7 -10 16 -10 8 0 12 5 9 10 -3 6 -10 10 -16 10 -5
0 -9 -4 -9 -10z"/>
<path d="M1305 1950 c-3 -5 -1 -10 4 -10 6 0 11 5 11 10 0 6 -2 10 -4 10 -3 0
-8 -4 -11 -10z"/>
<path d="M1753 1953 c-7 -2 -13 -13 -13 -23 0 -20 -27 -40 -54 -40 -24 0 -19
19 8 30 38 14 41 30 7 30 -28 0 -61 -21 -61 -40 0 -5 -9 -12 -20 -15 -11 -3
-20 -15 -20 -26 0 -16 -7 -19 -46 -19 -131 0 -177 -150 -86 -278 36 -50 75
-66 128 -53 51 13 75 3 91 -38 5 -14 22 -32 37 -40 14 -8 45 -32 67 -53 34
-33 46 -38 86 -38 73 0 121 20 174 71 42 41 49 53 49 86 0 44 -28 94 -64 119
-20 12 -24 22 -20 40 7 27 -5 31 -35 12 -15 -9 -24 -7 -49 10 -16 12 -43 22
-59 22 -26 0 -32 5 -43 40 -14 42 -42 79 -74 97 -19 10 -19 10 12 70 20 38 15
49 -15 36z m76 -304 c-22 -13 -3 -22 31 -14 19 4 35 16 40 28 7 18 9 19 9 4 1
-26 -28 -52 -74 -68 -22 -8 -51 -26 -63 -41 -13 -16 -30 -28 -38 -28 -19 0
-18 49 1 56 8 4 15 12 15 18 0 13 34 46 66 64 22 13 35 -5 13 -19z m200 -75
c25 -31 27 -63 6 -69 -54 -17 -52 -15 -32 -29 22 -17 22 -26 0 -26 -9 0 -25
-8 -36 -17 -11 -10 -35 -18 -58 -18 -21 0 -39 -3 -39 -7 0 -13 -37 -9 -49 6
-16 19 -3 73 13 55 8 -8 8 -13 -1 -16 -7 -3 -13 -9 -13 -14 0 -16 26 -10 45
11 10 12 24 19 31 16 6 -2 17 1 23 7 10 9 15 8 25 -5 20 -27 39 -23 24 3 -10
17 -10 23 0 26 15 6 16 33 1 33 -6 0 -13 -9 -16 -20 -3 -11 -14 -20 -24 -20
-23 0 -25 28 -3 37 10 4 14 13 10 27 -4 16 1 25 17 33 36 18 54 14 76 -13z
m-251 -69 c-11 -11 -61 -10 -65 2 -3 7 3 10 15 6 11 -2 23 1 27 7 5 8 10 9 18
1 6 -6 8 -13 5 -16z"/>
<path d="M1967 1573 c-12 -12 -7 -20 19 -32 34 -15 42 -7 19 19 -19 21 -28 24
-38 13z"/>
<path d="M1910 1440 c0 -5 5 -10 11 -10 5 0 7 5 4 10 -3 6 -8 10 -11 10 -2 0
-4 -4 -4 -10z"/>
<path d="M1490 1930 c-14 -11 -20 -20 -14 -20 6 0 19 9 29 20 23 25 17 25 -15
0z"/>
<path d="M1970 1946 c0 -3 9 -10 20 -16 11 -6 20 -8 20 -6 0 3 -9 10 -20 16
-11 6 -20 8 -20 6z"/>
<path d="M1440 1879 c0 -5 5 -7 10 -4 6 3 10 8 10 11 0 2 -4 4 -10 4 -5 0 -10
-5 -10 -11z"/>
<path d="M2220 1881 c0 -6 5 -13 10 -16 6 -3 10 1 10 9 0 9 -4 16 -10 16 -5 0
-10 -4 -10 -9z"/>
<path d="M2082 1841 c13 -17 27 -30 31 -30 5 -1 -2 12 -15 28 -13 17 -27 30
-31 30 -5 1 2 -12 15 -28z"/>
<path d="M1411 1839 c-7 -12 -10 -23 -8 -26 3 -3 11 5 17 17 6 12 10 23 8 25
-2 2 -10 -5 -17 -16z"/>
<path d="M2245 1840 c3 -5 8 -10 11 -10 2 0 4 5 4 10 0 6 -5 10 -11 10 -5 0
-7 -4 -4 -10z"/>
<path d="M2588 1834 c-5 -4 -8 -23 -8 -43 0 -25 3 -32 11 -24 6 6 9 25 7 43
-2 17 -6 28 -10 24z"/>
<path d="M1248 1824 c-5 -4 -8 -28 -7 -53 0 -41 1 -43 10 -21 11 27 8 86 -3
74z"/>
<path d="M1385 1769 c-4 -6 -5 -12 -2 -15 2 -3 7 2 10 11 7 17 1 20 -8 4z"/>
<path d="M2126 1765 c4 -8 8 -15 10 -15 2 0 4 7 4 15 0 8 -4 15 -10 15 -5 0
-7 -7 -4 -15z"/>
<path d="M2280 1721 c0 -11 5 -23 10 -26 6 -3 10 3 10 14 0 11 -4 23 -10 26
-5 3 -10 -3 -10 -14z"/>
<path d="M2147 1709 c4 -13 8 -18 11 -10 2 7 -1 18 -6 23 -8 8 -9 4 -5 -13z"/>
<path d="M1240 1641 c0 -16 5 -33 10 -36 6 -4 10 6 10 24 0 16 -4 33 -10 36
-6 4 -10 -6 -10 -24z"/>
<path d="M2452 1572 c-28 -30 -50 -58 -47 -60 3 -3 6 -3 8 -1 1 2 24 28 51 56
28 29 48 54 45 56 -2 2 -28 -21 -57 -51z"/>
<path d="M1380 1591 c0 -11 5 -23 10 -26 6 -3 10 3 10 14 0 11 -4 23 -10 26
-5 3 -10 -3 -10 -14z"/>
<path d="M2286 1537 c-5 -15 -6 -31 -2 -34 11 -11 18 5 14 34 l-4 28 -8 -28z"/>
<path d="M1263 1511 c1 -25 7 -43 19 -50 14 -9 18 -8 18 3 0 8 -4 18 -10 21
-5 3 -10 17 -10 30 0 13 -4 26 -9 30 -6 3 -9 -11 -8 -34z"/>
<path d="M940 1500 c0 -5 5 -10 11 -10 5 0 7 5 4 10 -3 6 -8 10 -11 10 -2 0
-4 -4 -4 -10z"/>
<path d="M1405 1500 c3 -5 8 -10 11 -10 2 0 4 5 4 10 0 6 -5 10 -11 10 -5 0
-7 -4 -4 -10z"/>
<path d="M1184 1468 c-10 -16 4 -22 28 -11 l22 10 -22 5 c-12 4 -25 2 -28 -4z"/>
<path d="M2342 1461 c-12 -10 -22 -21 -22 -25 0 -3 35 -6 78 -6 53 0 72 3 62
10 -8 5 -35 10 -59 10 -34 0 -42 3 -37 15 7 20 4 19 -22 -4z"/>
<path d="M2787 1474 c-10 -11 -8 -44 2 -44 6 0 13 4 16 10 8 12 -9 43 -18 34z"/>
<path d="M1440 1451 c0 -5 5 -13 10 -16 6 -3 10 -2 10 4 0 5 -4 13 -10 16 -5
3 -10 2 -10 -4z"/>
<path d="M2246 1411 c-16 -27 -55 -76 -88 -111 -33 -34 -57 -64 -54 -67 6 -6
159 133 165 151 2 6 7 13 10 16 4 3 4 17 1 32 -5 26 -6 26 -34 -21z"/>
<path d="M2107 1433 c-4 -3 -7 -11 -7 -17 0 -6 5 -5 12 2 6 6 9 14 7 17 -3 3
-9 2 -12 -2z"/>
<path d="M2608 1423 c23 -2 59 -2 80 0 20 2 1 4 -43 4 -44 0 -61 -2 -37 -4z"/>
<path d="M1470 1416 c0 -2 8 -10 18 -17 15 -13 16 -12 3 4 -13 16 -21 21 -21
13z"/>
<path d="M2065 1380 c-3 -5 -1 -10 4 -10 6 0 11 5 11 10 0 6 -2 10 -4 10 -3 0
-8 -4 -11 -10z"/>
<path d="M1530 1356 c0 -2 7 -9 15 -16 9 -7 15 -8 15 -2 0 5 -7 12 -15 16 -8
3 -15 4 -15 2z"/>
<path d="M1985 1320 c-3 -5 -2 -10 4 -10 5 0 13 5 16 10 3 6 2 10 -4 10 -5 0
-13 -4 -16 -10z"/>
<path d="M1598 1305 c13 -9 26 -14 29 -11 8 8 3 12 -27 21 l-25 7 23 -17z"/>
<path d="M1432 1274 c10 -10 20 -16 22 -13 3 3 -5 11 -17 18 -21 13 -21 12 -5
-5z"/>
<path d="M1675 1280 c3 -5 11 -10 16 -10 6 0 7 5 4 10 -3 6 -11 10 -16 10 -6
0 -7 -4 -4 -10z"/>
<path d="M1870 1280 c-12 -8 -9 -10 12 -10 15 0 30 5 33 10 8 13 -25 13 -45 0z"/>
<path d="M1500 1226 c0 -2 11 -11 25 -20 14 -9 25 -13 25 -8 0 5 -11 14 -25
20 -14 6 -25 10 -25 8z"/>
<path d="M2053 1214 c-34 -15 -42 -24 -20 -24 6 0 23 9 37 20 29 23 27 23 -17
4z"/>
<path d="M1657 1159 c7 -7 15 -10 18 -7 3 3 -2 9 -12 12 -14 6 -15 5 -6 -5z"/>
<path d="M1898 1153 c7 -3 16 -2 19 1 4 3 -2 6 -13 5 -11 0 -14 -3 -6 -6z"/>
<path d="M1213 1020 c-47 -11 -83 -37 -83 -60 0 -11 16 -36 35 -54 l35 -34 0
-191 c0 -140 4 -201 14 -225 23 -54 72 -101 138 -132 57 -26 75 -29 184 -32
138 -4 207 11 272 58 93 67 112 129 112 372 l0 177 35 27 c45 34 43 62 -5 86
-44 23 -175 24 -225 3 -54 -22 -56 -43 -5 -86 l43 -37 5 -159 c5 -178 -1 -213
-49 -259 -25 -24 -39 -29 -97 -32 -57 -3 -72 0 -101 20 -59 40 -71 77 -70 208
1 140 11 232 27 238 34 11 55 39 49 64 -10 38 -77 58 -191 57 -50 -1 -106 -4
-123 -9z"/>
<path d="M2061 1011 c-32 -21 -27 -56 13 -79 45 -27 49 -55 44 -293 -3 -152
-7 -190 -21 -216 -10 -20 -25 -33 -37 -33 -37 0 -37 -70 1 -90 24 -14 315 -15
349 -2 61 23 62 83 3 95 -39 8 -53 42 -53 125 0 75 10 92 52 92 36 0 68 -32
68 -70 0 -33 24 -51 53 -41 34 12 48 60 49 165 0 96 -1 101 -26 123 -34 29
-52 21 -78 -33 -19 -42 -22 -44 -64 -44 -39 0 -44 3 -50 26 -9 37 2 152 16
169 8 10 31 15 69 15 93 -1 131 -14 179 -64 24 -26 52 -46 61 -46 47 0 66 74
36 141 -33 75 -10 70 -343 72 -241 2 -305 -1 -321 -12z"/>
</g>
</svg>
